<?xml version="1.0" standalone="no"?> <!DOCTYPE svg PUBLIC "-//W3C//DTD SVG 1.0//EN" "http://www.w3.org/TR/2001/REC-SVG-20010904/DTD/svg10.dtd" > <svg xmlns="http://www.w3.org/2000/svg" width="100%" height="100%">
<defs >
<font id="universltstdultracn" horiz-adv-x="732" ><font-face
    font-family="Univers LT Std 59 UltraCn"
    units-per-em="2048"
    panose-1="2 11 6 8 3 5 2 6 2 4"
    ascent="1482"
    descent="-565"
    alphabetic="0" />
<missing-glyph horiz-adv-x="1024" d="M0 0V1434H1024V0H0ZM512 809L860 1331H164L512 809ZM573 717L922 195V1239L573 717ZM164 102H860L512 625L164 102ZM102 1239V195L451 717L102 1239Z" />
<glyph unicode=" " glyph-name="space" horiz-adv-x="380" />
<glyph unicode="!" glyph-name="exclam" horiz-adv-x="454" d="M147 338L119 1479H336L307 338H147ZM119 0V205H336V0H119Z" />
<glyph unicode="&quot;" glyph-name="quotedbl" horiz-adv-x="569" d="M330 1114V1479H502V1114H330ZM68 1114V1479H240V1114H68Z" />
<glyph unicode="#" glyph-name="numbersign" horiz-adv-x="761" d="M436 584L469 895H326L293 584H436ZM96 0L143 449H8V584H158L190 895H53V1030H205L252 1479H387L340 1030H483L530 1479H666L618 1030H754V895H604L571 584H709V449H557L510 0H375L422 449H279L231
0H96Z" />
<glyph unicode="$" glyph-name="dollar" horiz-adv-x="761" d="M317 -172V-12Q194 1 129 63Q55 131 55 252V428H260V307Q260 231 289 189T379 147Q454 147 484 192T514 317Q514 361 512 385T499 442T464 507T400 585T295 694Q248 741 219 772T155 850T101 938T69
1033T55 1145Q55 1303 120 1386T317 1491V1651H428V1491Q560 1479 625 1414T690 1221V1081H498V1198Q498 1331 383 1331Q319 1331 290 1293T260 1169Q260 1088 297 1020T469 811Q620 654 663 570T707 352Q707 186 642 95T428 -12V-172H317Z" />
<glyph unicode="%" glyph-name="percent" horiz-adv-x="1251" d="M209 1298V739Q209 696 223 677T268 657Q328 657 328 739V1298Q328 1341 314 1360T268 1380T223 1361T209 1298ZM330 -12L795 1491H918L453 -12H330ZM924 739V180Q924 137 938 118T983 98T1028
117T1042 180V739Q1042 782 1028 801T983 821T938 802T924 739ZM74 709V1329Q74 1411 127 1451T268 1491Q357 1491 410 1451T463 1329V709Q463 627 410 587T268 547Q180 547 127 587T74 709ZM788 150V770Q788 852 841 892T983 932T1125 892T1178 770V150Q1178 68
1125 28T983 -12T841 28T788 150Z" />
<glyph unicode="&amp;" glyph-name="ampersand" horiz-adv-x="833" d="M387 1331Q337 1331 317 1294T297 1180Q297 1115 310 1056T365 909Q430 990 452 1051T475 1190Q475 1331 387 1331ZM434 776L569 438H573V748H745V451Q745 260 698 197L788 0H584L565 43Q483
-12 358 -12Q271 -12 214 12T126 87T82 205T70 367Q70 419 71 456T78 540T94 623T123 694T169 757T236 803Q125 1008 125 1169Q125 1318 195 1398T385 1479Q647 1479 647 1198Q647 1072 595 975T434 776ZM494 197L299 649Q278 619 270 561T262 381Q262 250 286
193T373 135Q410 135 437 148T494 197Z" />
<glyph unicode="&apos;" glyph-name="quotesingle" horiz-adv-x="380" d="M104 1114V1479H276V1114H104Z" />
<glyph unicode="(" glyph-name="parenleft" horiz-adv-x="454" d="M440 -319H305Q109 210 109 580Q109 948 305 1479H440Q394 1345 348 1056T301 580T347 105T440 -319Z" />
<glyph unicode=")" glyph-name="parenright" horiz-adv-x="454" d="M14 1479H150Q346 948 346 580Q346 210 150 -319H14Q60 -186 107 103T154 580Q154 766 107 1055T14 1479Z" />
<glyph unicode="*" glyph-name="asterisk" horiz-adv-x="606" d="M229 1190L27 1282L82 1384L260 1264L252 1479H354L346 1264L524 1384L580 1282L377 1190L580 1098L524 995L346 1116L354 901H252L260 1116L82 995L27 1098L229 1190Z" />
<glyph unicode="+" glyph-name="plus" horiz-adv-x="1228" d="M528 0V432H96V604H528V1036H700V604H1133V432H700V0H528Z" />
<glyph unicode="," glyph-name="comma" horiz-adv-x="380" d="M59 -123L104 242H322L207 -123H59Z" />
<glyph unicode="-" glyph-name="hyphen" horiz-adv-x="606" d="M55 438V598H551V438H55Z" />
<glyph unicode="." glyph-name="period" horiz-adv-x="380" d="M70 0V242H311V0H70Z" />
<glyph unicode="/" glyph-name="slash" horiz-adv-x="606" d="M-4 -12L438 1491H610L168 -12H-4Z" />
<glyph unicode="0" glyph-name="zero" horiz-adv-x="761" d="M268 1159V319Q268 288 268 273T272 231T282 192T301 163T333 142T381 135T428 141T461 163T480 191T490 231T493 272T494 319V1159Q494 1190 494 1205T490 1247T480 1286T461 1315T429 1336T381 1343T334
1337T301 1315T282 1287T272 1247T269 1206T268 1159ZM76 352V1126Q76 1230 89 1296T137 1407T230 1472T381 1491T531 1472T625 1408T673 1296T686 1126V352Q686 248 673 182T625 71T532 7T381 -12T231 7T137 71T89 182T76 352Z" />
<glyph unicode="1" glyph-name="one" horiz-adv-x="761" d="M328 0V1200H324Q292 1157 258 1124T164 1047V1239Q201 1266 265 1348T348 1479H520V0H328Z" />
<glyph unicode="2" glyph-name="two" horiz-adv-x="761" d="M70 0V197L371 754Q434 872 459 962T485 1167Q485 1266 460 1304T383 1343Q327 1343 306 1309T285 1194V1098H92V1212Q92 1366 152 1428T379 1491Q554 1491 616 1420T678 1161Q678 1030 660 946T584
750L274 172H692V0H70Z" />
<glyph unicode="3" glyph-name="three" horiz-adv-x="761" d="M76 352V399H268V319Q268 228 294 182T381 135T468 181T494 319V494Q494 597 459 634T319 672H268V844H334Q427 844 457 879T487 1022V1186Q487 1275 463 1309T391 1343Q330 1343 305 1297T279 1159V1110H86Q86
1327 148 1409T391 1491Q481 1491 537 1470T625 1399T668 1279T680 1098Q680 1018 675 967T660 878T627 819T576 786T500 764V760Q544 753 569 744T619 710T657 643T678 529T686 352Q686 248 673 182T625 71T532 7T381 -12T231 7T137 71T89 182T76 352Z" />
<glyph unicode="4" glyph-name="four" horiz-adv-x="761" d="M45 360V528L373 1479H627V508H717V360H627V0H434V360H45ZM434 508V1192H430L217 508H434Z" />
<glyph unicode="5" glyph-name="five" horiz-adv-x="761" d="M70 240V399H262V268Q262 135 379 135Q414 135 438 149T474 182T492 234T499 288T500 344V659Q500 801 389 801Q337 801 307 761T276 647V588H84V1479H657V1319H276V866H281Q319 920 362 940T465 961Q508
961 546 947T618 905T672 826T692 707V285Q692 141 617 65T373 -12Q224 -12 147 55T70 240Z" />
<glyph unicode="6" glyph-name="six" horiz-adv-x="761" d="M680 1231V1100H487V1171Q487 1259 463 1295T377 1331Q315 1331 289 1285T262 1147V874H266Q301 921 346 941T459 961Q515 961 556 944T623 897T664 821T686 723T692 604V352Q692 247 679 182T628 71T528
7T365 -12Q202 -12 136 61T70 328V1126Q70 1325 140 1408T377 1491Q680 1491 680 1231ZM487 319V664Q487 729 464 765T377 801Q317 801 290 757T262 614V319Q262 287 262 271T266 229T276 190T296 162T328 141T377 135Q397 135 413 138T440 148T460 163T473 185T481
210T485 243T487 278T487 319Z" />
<glyph unicode="7" glyph-name="seven" horiz-adv-x="761" d="M176 0L500 1298H53V1479H692V1290L389 0H176Z" />
<glyph unicode="8" glyph-name="eight" horiz-adv-x="761" d="M494 319V500Q494 531 494 546T490 588T480 627T461 656T429 677T381 684T334 678T301 656T282 628T272 588T269 547T268 500V319Q268 288 268 273T272 231T282 192T301 163T333 142T381 135T428 141T461
163T480 191T490 231T493 272T494 319ZM481 981V1165Q481 1199 481 1216T475 1259T460 1298T430 1321T381 1331T332 1321T303 1298T288 1259T282 1216T281 1165V1044Q281 1003 281 984T284 936T293 895T310 868T338 849T381 844Q410 844 430 852T459 872T474 905T480
940T481 981ZM76 352V475Q76 579 93 636T143 717T240 760V764Q152 785 120 844T88 1038V1176Q88 1339 153 1415T381 1491T609 1415T674 1176V1038Q674 904 642 845T522 764V760Q587 742 619 718T668 636T686 475V352Q686 248 673 182T625 71T532 7T381 -12T231
7T137 71T89 182T76 352Z" />
<glyph unicode="9" glyph-name="nine" horiz-adv-x="761" d="M82 248V379H274V307Q274 219 299 183T385 147Q447 147 473 193T500 332V604H496Q461 558 416 538T303 518Q234 518 187 543T115 618T80 729T70 874V1126Q70 1231 83 1296T134 1408T234 1472T397 1491Q560
1491 626 1418T692 1151V352Q692 153 622 71T385 -12Q82 -12 82 248ZM274 1159V815Q274 750 298 714T385 678Q445 678 472 722T500 864V1159Q500 1191 500 1207T496 1249T486 1288T466 1316T434 1337T385 1343Q362 1343 344 1338T315 1327T295 1306T283 1280T277
1245T275 1206T274 1159Z" />
<glyph unicode=":" glyph-name="colon" horiz-adv-x="380" d="M70 0V242H311V0H70ZM70 786V1028H311V786H70Z" />
<glyph unicode=";" glyph-name="semicolon" horiz-adv-x="380" d="M59 -123L104 242H322L207 -123H59ZM70 786V1028H311V786H70Z" />
<glyph unicode="&lt;" glyph-name="less" horiz-adv-x="1228" d="M96 444V592L1133 1049V877L307 518L1133 160V-12L96 444Z" />
<glyph unicode="=" glyph-name="equal" horiz-adv-x="1228" d="M96 645V817H1133V645H96ZM96 219V391H1133V219H96Z" />
<glyph unicode="&gt;" glyph-name="greater" horiz-adv-x="1228" d="M96 -12V160L922 518L96 877V1049L1133 592V444L96 -12Z" />
<glyph unicode="?" glyph-name="question" horiz-adv-x="645" d="M236 334V580Q236 678 251 747T311 926L354 1024Q384 1094 390 1129T397 1243Q397 1305 382 1330T326 1356Q258 1356 258 1255V1124H66V1255Q66 1384 130 1437T326 1491Q474 1491 532 1427T590
1212Q590 1109 578 1058T539 946L475 819Q430 731 413 665T395 502V334H236ZM207 0V205H424V0H207Z" />
<glyph unicode="@" glyph-name="at" horiz-adv-x="1638" d="M1028 743T1028 821T978 955T856 1012Q778 1012 708 954T600 810T561 639Q561 553 607 498T735 442Q814 442 884 506T991 656ZM68 741Q68 947 173 1120T458 1392T852 1491Q947 1491 1038 1471T1208 1413T1355
1319T1470 1196T1544 1045T1571 872Q1571 764 1535 668T1444 505T1321 390T1190 318T1075 295Q954 295 936 412H932Q832 295 682 295Q552 295 477 388T401 623Q401 721 434 817T526 989T669 1112T850 1159Q1015 1159 1087 1010L1128 1128H1276L1118 586Q1098 504
1098 485T1110 454T1147 442Q1203 442 1264 498T1368 651T1411 848Q1411 993 1333 1107T1127 1282T852 1343Q717 1343 599 1294T401 1161T274 966T227 733Q227 611 276 501T411 310T615 183T868 135Q1004 135 1132 191T1333 328H1505Q1401 167 1231 78T860 -12Q695
-12 549 46T297 205T130 445T68 741Z" />
<glyph unicode="A" glyph-name="A" horiz-adv-x="909" d="M23 0L348 1479H586L887 0H682L614 377H295L227 0H23ZM455 1262L326 549H586L459 1262H455Z" />
<glyph unicode="B" glyph-name="B" horiz-adv-x="796" d="M76 0V1479H432Q528 1479 585 1462T674 1400T716 1292T727 1120Q727 1032 721 973T702 875T666 813T614 781T541 764V760Q626 744 666 713T721 617T737 422Q737 336 733 279T715 171T679 91T618 39T526
9T397 0H76ZM281 684V160H408Q445 160 467 166T506 186T530 233T541 310T545 428Q545 544 535 595T499 665T414 684H281ZM281 1319V844H399Q433 844 452 846T489 860T513 886T526 934T533 1005T535 1110Q535 1237 505 1278T377 1319H281Z" />
<glyph unicode="C" glyph-name="C" horiz-adv-x="720" d="M53 354V1102Q53 1168 62 1222T95 1328T157 1414T256 1470T399 1491Q548 1491 622 1421T696 1223V1075H504V1178Q504 1331 385 1331Q309 1331 284 1275T258 1077V352Q258 289 267 247T294 184T332 155T379
147Q438 147 471 191T504 324V426H696V262Q696 200 682 153T635 68T542 9T395 -12Q210 -12 132 80T53 354Z" />
<glyph unicode="D" glyph-name="D" horiz-adv-x="833" d="M281 1307V172H379Q489 172 524 241T559 506V1014Q559 1086 555 1129T540 1211T507 1268T450 1297T362 1307H281ZM76 0V1479H406Q469 1479 516 1474T601 1455T664 1422T709 1369T738 1299T754 1204T762
1086T764 938V498Q764 399 758 329T734 201T690 107T618 45T514 10T373 0H76Z" />
<glyph unicode="E" glyph-name="E" horiz-adv-x="645" d="M76 0V1479H633V1307H281V844H612V672H281V172H633V0H76Z" />
<glyph unicode="F" glyph-name="F" horiz-adv-x="645" d="M76 0V1479H633V1307H281V844H612V672H281V0H76Z" />
<glyph unicode="G" glyph-name="G" horiz-adv-x="833" d="M758 1087H553V1163Q553 1241 518 1286T422 1331Q281 1331 281 1087V342Q281 253 320 200T422 147Q486 147 553 162V596H418V768H758V25Q602 -12 420 -12Q233 -12 155 80T76 354V1102Q76 1313 152 1402T424
1491Q591 1491 674 1427T758 1223V1087Z" />
<glyph unicode="H" glyph-name="H" horiz-adv-x="833" d="M76 0V1479H281V844H553V1479H758V0H553V672H281V0H76Z" />
<glyph unicode="I" glyph-name="I" horiz-adv-x="344" d="M70 0V1479H274V0H70Z" />
<glyph unicode="J" glyph-name="J" horiz-adv-x="645" d="M16 242V432H209V287Q209 147 287 147Q314 147 331 158T357 193T368 239T371 295V1479H575V272Q575 -12 287 -12Q150 -12 83 43T16 242Z" />
<glyph unicode="K" glyph-name="K" horiz-adv-x="833" d="M76 0V1479H281V805H285L608 1479H813L469 784L838 0H608L285 739H281V0H76Z" />
<glyph unicode="L" glyph-name="L" horiz-adv-x="645" d="M76 0V1479H281V172H625V0H76Z" />
<glyph unicode="M" glyph-name="M" horiz-adv-x="1175" d="M76 0V1479H401L590 352H594L782 1479H1100V0H907V1331H903L694 0H489L260 1331H256V0H76Z" />
<glyph unicode="N" glyph-name="N" horiz-adv-x="872" d="M76 0V1479H358L600 250H604V1479H797V0H502L260 1262H256V0H76Z" />
<glyph unicode="O" glyph-name="O" horiz-adv-x="833" d="M274 1118V342Q274 249 312 198T416 147Q482 147 520 197T559 342V1118Q559 1331 416 1331Q274 1331 274 1118ZM70 354V1102Q70 1186 85 1251T138 1373T245 1460T416 1491Q606 1491 685 1399T764 1124V377Q764
311 755 257T722 151T660 65T560 9T416 -12Q228 -12 149 80T70 354Z" />
<glyph unicode="P" glyph-name="P" horiz-adv-x="796" d="M281 1307V815H387Q425 815 447 817T488 830T516 854T531 898T539 965T541 1061T540 1157T532 1223T517 1268T489 1292T447 1304T387 1307H281ZM76 0V1479H414Q486 1479 535 1472T623 1446T684 1399T720
1321T740 1212T745 1061T740 911T721 801T684 724T624 676T536 650T414 643H281V0H76Z" />
<glyph unicode="Q" glyph-name="Q" horiz-adv-x="872" d="M274 1118V342Q274 249 312 198T416 147Q482 147 520 197T559 342V1118Q559 1331 416 1331Q274 1331 274 1118ZM70 354V1102Q70 1186 85 1251T138 1373T245 1460T416 1491Q606 1491 685 1399T764 1124V426Q764
334 740 252T678 127L682 123Q731 147 874 147V0Q790 0 622 -6T416 -12Q228 -12 149 80T70 354Z" />
<glyph unicode="R" glyph-name="R" horiz-adv-x="796" d="M76 0V1479H393Q459 1479 505 1473T589 1456T649 1422T687 1371T710 1296T720 1200T723 1075Q723 918 686 847T528 739V735Q630 725 672 671T715 510V188Q715 61 727 0H535Q510 44 510 133V467Q510 573
480 608T350 643H281V0H76ZM281 1307V815H334Q377 815 404 818T453 831T487 857T506 903T516 971T518 1067Q518 1127 517 1161T510 1226T497 1269T472 1293T434 1305T379 1307H281Z" />
<glyph unicode="S" glyph-name="S" horiz-adv-x="757" d="M53 252V428H258V307Q258 231 287 189T377 147Q452 147 482 192T512 317Q512 361 510 385T497 442T462 507T398 585T293 694Q246 741 217 772T153 850T99 938T67 1033T53 1145Q53 1324 136 1407T389 1491Q540
1491 629 1409Q688 1353 688 1221V1081H496V1198Q496 1331 381 1331Q317 1331 288 1293T258 1169Q258 1088 295 1020T467 811Q618 654 661 570T705 352Q705 172 627 80T371 -12Q223 -12 138 53T53 252Z" />
<glyph unicode="T" glyph-name="T" horiz-adv-x="720" d="M12 1307V1479H709V1307H463V0H258V1307H12Z" />
<glyph unicode="U" glyph-name="U" horiz-adv-x="833" d="M764 1479V334Q764 264 749 207T696 98T589 17T418 -12Q317 -12 246 17T138 97T86 206T70 334V1479H274V299Q274 221 307 184T418 147Q494 147 526 184T559 299V1479H764Z" />
<glyph unicode="V" glyph-name="V" horiz-adv-x="872" d="M317 0L16 1479H221L434 303H438L651 1479H856L555 0H317Z" />
<glyph unicode="W" glyph-name="W" horiz-adv-x="1366" d="M260 0L27 1479H238L385 262H389L553 1479H831L967 262H971L1147 1479H1339L1073 0H823L686 1237H682L508 0H260Z" />
<glyph unicode="X" glyph-name="X" horiz-adv-x="872" d="M16 0L336 768L39 1479H256L449 958L641 1479H846L551 748L856 0H639L438 543L221 0H16Z" />
<glyph unicode="Y" glyph-name="Y" horiz-adv-x="833" d="M313 606L31 1479H236L414 856H418L623 1479H803L518 606V0H313V606Z" />
<glyph unicode="Z" glyph-name="Z" horiz-adv-x="720" d="M23 0V186L483 1307H80V1479H688V1307L227 172H698V0H23Z" />
<glyph unicode="[" glyph-name="bracketleft" horiz-adv-x="454" d="M117 -319V1479H440V1331H289V-172H440V-319H117Z" />
<glyph unicode="\" glyph-name="backslash" horiz-adv-x="606" d="M168 1491L610 -12H438L-4 1491H168Z" />
<glyph unicode="]" glyph-name="bracketright" horiz-adv-x="454" d="M14 -319V-172H166V1331H14V1479H338V-319H14Z" />
<glyph unicode="^" glyph-name="asciicircum" horiz-adv-x="1228" d="M117 631L535 1479H694L1112 631H940L614 1307L289 631H117Z" />
<glyph unicode="_" glyph-name="underscore" horiz-adv-x="1024" d="M0 -256V-154H1024V-256H0Z" />
<glyph unicode="`" glyph-name="grave" horiz-adv-x="344" d="M150 1223L-74 1520H131L272 1223H150Z" />
<glyph unicode="a" glyph-name="a" horiz-adv-x="681" d="M66 725V817Q66 1040 340 1040Q476 1040 544 982T612 791V0H432V106Q421 95 404 74T377 43Q322 -12 240 -12Q192 -12 161 -3T103 35T64 121T51 268Q51 418 65 476T121 578Q157 616 210 628T420 641V807Q420
856 403 880T340 905Q299 905 279 885T258 819V725H66ZM420 506H358Q291 506 268 462T244 295Q244 217 250 182T271 135T319 123Q367 123 393 155T420 242V506Z" />
<glyph unicode="b" glyph-name="b" horiz-adv-x="681" d="M422 258V766Q422 844 403 874T348 905Q260 905 260 737V219Q260 166 283 139T338 111Q380 111 401 142T422 258ZM68 0V1479H260V954H264Q290 998 338 1020Q382 1040 434 1040Q519 1040 566 978T614 803V225Q614
112 567 50T434 -12Q377 -12 329 12T252 74H248V0H68Z" />
<glyph unicode="c" glyph-name="c" horiz-adv-x="606" d="M43 244V764Q43 894 114 967T313 1040Q438 1040 500 985T563 836V682H383V795Q383 905 309 905Q275 905 256 874T236 784V219Q236 123 309 123Q383 123 383 223V346H563V190Q563 134 542 94T483 31T405
-2T315 -12Q195 -12 119 49T43 244Z" />
<glyph unicode="d" glyph-name="d" horiz-adv-x="681" d="M260 766V258Q260 174 281 143T344 111Q376 111 399 138T422 219V737Q422 905 334 905Q298 905 279 875T260 766ZM68 225V803Q68 916 115 978T248 1040Q300 1040 344 1020Q392 998 418 954H422V1479H614V0H434V74H430Q400
34 348 10Q299 -12 248 -12Q163 -12 116 50T68 225Z" />
<glyph unicode="e" glyph-name="e" horiz-adv-x="681" d="M61 244V764Q61 895 134 967T340 1040Q400 1040 449 1027T537 984T599 904T621 784V453H254V233Q254 164 277 138T348 111Q399 111 419 144T440 244V338H621V193Q621 105 552 47T334 -12Q213 -12 137 49T61
244ZM254 805V588H440V788Q440 858 419 888T348 918Q296 918 275 891T254 805Z" />
<glyph unicode="f" glyph-name="f" horiz-adv-x="417" d="M106 0V893H10V1028H106V1270Q106 1328 115 1364T152 1428T227 1467T352 1479H418V1331H383Q339 1331 319 1310T299 1243V1028H418V893H299V0H106Z" />
<glyph unicode="g" glyph-name="g" horiz-adv-x="681" d="M86 -180V-94H279V-174Q279 -220 295 -241T350 -262Q388 -262 405 -235T422 -145V111H418Q364 25 248 25Q163 25 116 87T68 262V803Q68 916 115 978T248 1040Q312 1040 351 1017T430 936H434V1028H614V-100Q614
-239 545 -312T338 -385Q224 -385 155 -336T86 -180ZM260 799V307Q260 223 281 192T344 160Q376 160 399 187T422 268V797Q422 905 336 905Q299 905 280 882T260 799Z" />
<glyph unicode="h" glyph-name="h" horiz-adv-x="681" d="M70 0V1479H262V942H266Q287 989 334 1016Q380 1040 432 1040Q512 1040 562 992T612 838V0H420V801Q420 845 404 869T346 893Q262 893 262 784V0H70Z" />
<glyph unicode="i" glyph-name="i" horiz-adv-x="344" d="M76 0V1028H268V0H76ZM76 1274V1479H268V1274H76Z" />
<glyph unicode="j" glyph-name="j" horiz-adv-x="344" d="M76 -152V1028H268V-188Q268 -263 246 -303T160 -363T-25 -385V-238Q36 -236 56 -220T76 -152ZM76 1274V1479H268V1274H76Z" />
<glyph unicode="k" glyph-name="k" horiz-adv-x="645" d="M70 0V1479H262V592H266L440 1028H621L434 567L645 0H440L266 528H262V0H70Z" />
<glyph unicode="l" glyph-name="l" horiz-adv-x="344" d="M76 0V1479H268V0H76Z" />
<glyph unicode="m" glyph-name="m" horiz-adv-x="1064" d="M86 0V1028H266V942H270Q294 983 344 1011T453 1040Q560 1040 621 942Q679 1040 791 1040Q876 1040 927 992T979 838V0H786V801Q786 845 770 869T713 893Q629 893 629 784V0H436V801Q436 845 420 869T362
893Q279 893 279 784V0H86Z" />
<glyph unicode="n" glyph-name="n" horiz-adv-x="681" d="M70 0V1028H250V942H254Q281 988 328 1014Q371 1040 432 1040Q512 1040 562 992T612 838V0H420V801Q420 845 404 869T346 893Q262 893 262 784V0H70Z" />
<glyph unicode="o" glyph-name="o" horiz-adv-x="681" d="M68 244V764Q68 895 139 967T340 1040Q398 1040 445 1027T532 984T592 904T614 784V264Q614 133 543 61T342 -12Q284 -12 237 1T150 44T90 124T68 244ZM260 776V252Q260 188 279 156T342 123Q422 123 422
252V776Q422 905 342 905Q298 905 279 873T260 776Z" />
<glyph unicode="p" glyph-name="p" horiz-adv-x="681" d="M68 -373V1028H248V913H252Q300 1040 434 1040Q519 1040 566 978T614 803V225Q614 112 567 50T434 -12Q383 -12 335 7T260 57V-373H68ZM260 725V231Q260 178 283 151T338 123Q380 123 401 155T422 270V754Q422
831 403 862T348 893Q260 893 260 725Z" />
<glyph unicode="q" glyph-name="q" horiz-adv-x="681" d="M68 225V803Q68 916 115 978T248 1040Q382 1040 430 913H434V1028H614V-373H422V57Q395 27 347 8T248 -12Q163 -12 116 50T68 225ZM260 754V270Q260 187 281 155T344 123Q376 123 399 150T422 231V725Q422
893 334 893Q299 893 280 862T260 754Z" />
<glyph unicode="r" glyph-name="r" horiz-adv-x="417" d="M70 0V1028H250V922H254Q288 994 321 1017T426 1040V848Q347 848 305 819T262 715V0H70Z" />
<glyph unicode="s" glyph-name="s" horiz-adv-x="606" d="M545 696H373V795Q373 855 358 880T305 905T254 885T240 811Q240 768 242 749T261 702T299 656T377 588Q491 488 523 431T555 264Q555 112 494 50T281 -12Q167 -12 109 38T51 199V344H231V203Q231 158
249 141T303 123Q349 123 362 147T375 238Q375 322 358 356T258 459L215 496Q173 531 150 552T107 598T79 635T66 676T60 722T59 784Q59 925 125 982T326 1040Q434 1040 489 993T545 854V696Z" />
<glyph unicode="t" glyph-name="t" horiz-adv-x="417" d="M106 137V893H10V1028H106V1223L299 1290V1028H418V893H299V227Q299 173 321 154T391 135Q422 135 440 141V6Q374 0 315 0Q203 0 155 33T106 137Z" />
<glyph unicode="u" glyph-name="u" horiz-adv-x="681" d="M612 1028V0H432V86H428Q401 40 354 14Q311 -12 250 -12Q170 -12 120 36T70 190V1028H262V227Q262 183 278 159T336 135Q420 135 420 244V1028H612Z" />
<glyph unicode="v" glyph-name="v" horiz-adv-x="681" d="M217 0L10 1028H209L342 193H346L479 1028H672L442 0H217Z" />
<glyph unicode="w" glyph-name="w" horiz-adv-x="1099" d="M203 0L16 1028H221L322 229H326L446 1028H666L780 229H784L891 1028H1083L879 0H659L557 799H553L414 0H203Z" />
<glyph unicode="x" glyph-name="x" horiz-adv-x="645" d="M-4 0L217 543L18 1028H231L332 713H336L453 1028H633L430 518L649 0H438L315 362H311L188 0H-4Z" />
<glyph unicode="y" glyph-name="y" horiz-adv-x="681" d="M246 14L12 1028H217L344 285H348L477 1028H670L336 -373H156L246 14Z" />
<glyph unicode="z" glyph-name="z" horiz-adv-x="493" d="M23 0V186L291 881H23V1028H471V860L195 147H471V0H23Z" />
<glyph unicode="{" glyph-name="braceleft" horiz-adv-x="454" d="M-4 512V647Q41 648 68 678T106 757T117 879V1219Q117 1341 183 1410T346 1479H418V1331H377Q289 1331 289 1180V848Q289 783 269 731T217 648T158 602T106 580V575Q129 570 157 555T216 510T268
429T289 311V-20Q289 -172 377 -172H418V-319H346Q250 -319 184 -250T117 -59V281Q117 391 90 451T-4 512Z" />
<glyph unicode="|" glyph-name="bar" horiz-adv-x="454" d="M141 -12V1491H313V-12H141Z" />
<glyph unicode="}" glyph-name="braceright" horiz-adv-x="454" d="M459 647V512Q393 511 366 451T338 281V-59Q338 -181 272 -250T109 -319H37V-172H78Q166 -172 166 -20V311Q166 376 186 429T238 512T297 558T348 580V584Q325 589 298 604T239 649T187 730T166
848V1180Q166 1331 78 1331H37V1479H109Q205 1479 271 1410T338 1219V879Q338 806 348 757T386 678T459 647Z" />
<glyph unicode="~" glyph-name="asciitilde" horiz-adv-x="1228" d="M215 348L129 502Q188 597 253 637T397 678Q501 678 635 602Q759 530 834 530Q923 530 1014 688L1100 535Q1041 439 976 399T831 358Q734 358 594 432Q453 506 395 506Q304 506 215 348Z" />
</font>
</defs>
</svg>
